<svg width="15" height="16" viewBox="0 0 15 16" xmlns="http://www.w3.org/2000/svg">
<path fill-rule="evenodd" clip-rule="evenodd" d="M12.4035 3.5199C12.4035 4.02034 12.0005 4.42592 11.5035 4.42592C11.0065 4.42592 10.6035 4.02034 10.6035 3.5199C10.6035 3.01947 11.0065 2.61389 11.5035 2.61389C12.0006 2.61389 12.4035 3.01947 12.4035 3.5199ZM7.5 10.0668C6.1193 10.0668 5.00004 8.94009 5.00004 7.55015C5.00004 6.16022 6.1193 5.03347 7.5 5.03347C8.8807 5.03347 9.99996 6.16022 9.99996 7.55015C9.99996 8.94009 8.8807 10.0668 7.5 10.0668ZM7.5 3.67303C5.37293 3.67303 3.64863 5.40886 3.64863 7.55015C3.64863 9.69145 5.37293 11.4273 7.5 11.4273C9.62707 11.4273 11.3514 9.69145 11.3514 7.55015C11.3514 5.40886 9.62707 3.67303 7.5 3.67303ZM7.5 1.36044C9.50262 1.36044 9.7398 1.36811 10.5306 1.40445C11.2618 1.43807 11.659 1.56099 11.9232 1.66445C12.2733 1.80142 12.5231 1.96505 12.7856 2.2293C13.0481 2.49344 13.2107 2.74495 13.3467 3.09745C13.4494 3.36348 13.5716 3.76328 13.605 4.49942C13.6411 5.29561 13.6487 5.53438 13.6487 7.55039C13.6487 9.5664 13.6411 9.80517 13.605 10.6012C13.5716 11.3374 13.4495 11.7372 13.3467 12.0032C13.2107 12.3556 13.0481 12.6071 12.7856 12.8714C12.5232 13.1356 12.2734 13.2992 11.9232 13.4362C11.659 13.5395 11.2618 13.6626 10.5306 13.6962C9.7398 13.7325 9.50262 13.7402 7.5 13.7402C5.49727 13.7402 5.26008 13.7325 4.4693 13.6962C3.73805 13.6626 3.3409 13.5397 3.07664 13.4362C2.7266 13.2992 2.47676 13.1356 2.21426 12.8714C1.95188 12.6072 1.78922 12.3557 1.65316 12.0032C1.55051 11.7372 1.42828 11.3374 1.39488 10.6012C1.35879 9.80505 1.35117 9.56628 1.35117 7.55039C1.35117 5.53438 1.35879 5.29561 1.39488 4.49942C1.42828 3.76328 1.55039 3.36348 1.65316 3.09745C1.78922 2.74507 1.95176 2.49356 2.21426 2.2293C2.47664 1.96505 2.72648 1.80142 3.07664 1.66445C3.3409 1.56111 3.73805 1.43807 4.4693 1.40445C5.2602 1.36811 5.49738 1.36044 7.5 1.36044ZM7.5 0C5.46316 0 5.2077 0.00872986 4.40777 0.0454189C3.60949 0.0821079 3.06422 0.209753 2.58727 0.396383C2.09402 0.589266 1.67578 0.847505 1.25883 1.26725C0.841875 1.68699 0.585352 2.10803 0.39375 2.60457C0.208359 3.08483 0.0815625 3.63363 0.0451172 4.43725C0.00867188 5.24252 0 5.4997 0 7.55015C0 9.60061 0.00867188 9.85779 0.0451172 10.6631C0.0815625 11.4667 0.208359 12.0155 0.39375 12.4957C0.585352 12.9923 0.841875 13.4133 1.25883 13.8331C1.67578 14.2528 2.09402 14.5109 2.58727 14.7039C3.06434 14.8906 3.60949 15.0182 4.40777 15.0549C5.2077 15.0916 5.46316 15.1003 7.5 15.1003C9.53684 15.1003 9.7923 15.0916 10.5922 15.0549C11.3905 15.0182 11.9357 14.8906 12.4127 14.7039C12.906 14.5109 13.3242 14.2528 13.7412 13.8331C14.1581 13.4133 14.4145 12.9923 14.6062 12.4957C14.7916 12.0155 14.9184 11.4667 14.9549 10.6631C14.9913 9.85779 15 9.60061 15 7.55015C15 5.4997 14.9913 5.24252 14.9549 4.43725C14.9184 3.63363 14.7916 3.08483 14.6062 2.60457C14.4145 2.10803 14.1581 1.68699 13.7412 1.26725C13.3242 0.847505 12.906 0.589384 12.4127 0.396383C11.9357 0.209753 11.3905 0.0821079 10.5922 0.0454189C9.7923 0.00872986 9.53684 0 7.5 0Z"/>
</svg>
