<svg width="32" height="17" viewBox="0 0 32 17" xmlns="http://www.w3.org/2000/svg">
<path d="M1 2.26093H31C31.552 2.26093 32 1.80993 32 1.25424C32 0.698554 31.552 0.247559 31 0.247559H1C0.448 0.247559 0 0.698554 0 1.25424C0 1.80993 0.448 2.26093 1 2.26093Z"/>
<path d="M31 7.29443H1C0.448 7.29443 0 7.74543 0 8.30112C0 8.85682 0.448 9.30782 1 9.30782H31C31.552 9.30782 32 8.85682 32 8.30112C32 7.74543 31.552 7.29443 31 7.29443Z" />
<path d="M31 14.3411H11C10.448 14.3411 10 14.7921 10 15.3478C10 15.9034 10.448 16.3544 11 16.3544H31C31.552 16.3544 32 15.9034 32 15.3478C32 14.7921 31.552 14.3411 31 14.3411Z" />
</svg>
