<svg width="13" height="13" viewBox="0 0 13 13" xmlns="http://www.w3.org/2000/svg">
<path d="M13 10.267C13 10.4332 12.9692 10.6502 12.9077 10.918C12.8461 11.1857 12.7815 11.3965 12.7138 11.5504C12.5845 11.8582 12.209 12.1844 11.5874 12.5291C11.0088 12.843 10.4363 13 9.87003 13C9.70384 13 9.54226 12.9892 9.3853 12.9677C9.22834 12.9461 9.05137 12.9077 8.8544 12.8523C8.65743 12.7969 8.51124 12.7522 8.41584 12.7184C8.32043 12.6845 8.14962 12.6214 7.90341 12.5291C7.6572 12.4368 7.50639 12.3814 7.45099 12.3629C6.84777 12.1475 6.30919 11.892 5.83523 11.5966C5.04735 11.1103 4.23331 10.4471 3.39311 9.60689C2.55291 8.76669 1.88968 7.95265 1.40341 7.16477C1.10795 6.69081 0.852509 6.15223 0.637074 5.54901C0.618608 5.49361 0.56321 5.3428 0.470881 5.09659C0.378551 4.85038 0.315459 4.67957 0.281605 4.58416C0.247751 4.48875 0.203125 4.34257 0.147727 4.1456C0.0923295 3.94863 0.0538589 3.77166 0.0323153 3.6147C0.0107718 3.45774 0 3.29616 0 3.12997C0 2.56368 0.15696 1.99124 0.470881 1.41264C0.815578 0.790956 1.14181 0.415483 1.44957 0.286222C1.60346 0.218513 1.81428 0.153883 2.08203 0.0923295C2.34979 0.0307765 2.56676 0 2.73295 0C2.81913 0 2.88376 0.00923296 2.92685 0.0276989C3.03764 0.0646307 3.20076 0.298532 3.41619 0.729403C3.4839 0.846354 3.57623 1.01255 3.69318 1.22798C3.81013 1.44342 3.91785 1.63885 4.01634 1.81428C4.11482 1.9897 4.21023 2.15436 4.30256 2.30824C4.32102 2.33286 4.37488 2.4098 4.46413 2.53906C4.55339 2.66832 4.61955 2.77758 4.66264 2.86683C4.70573 2.95608 4.72727 3.0438 4.72727 3.12997C4.72727 3.25308 4.63956 3.40696 4.46413 3.59162C4.28871 3.77628 4.09789 3.94555 3.89169 4.09943C3.68549 4.25331 3.49467 4.41643 3.31925 4.58878C3.14382 4.76113 3.05611 4.9027 3.05611 5.01349C3.05611 5.06889 3.0715 5.13814 3.10227 5.22124C3.13305 5.30433 3.15921 5.36742 3.18075 5.41051C3.2023 5.4536 3.24538 5.52746 3.31001 5.6321C3.37464 5.73674 3.41004 5.79522 3.41619 5.80753C3.884 6.6508 4.41951 7.37405 5.02273 7.97727C5.62595 8.58049 6.3492 9.116 7.19247 9.58381C7.20478 9.58996 7.26326 9.62535 7.3679 9.68999C7.47254 9.75462 7.5464 9.7977 7.58949 9.81925C7.63258 9.84079 7.69567 9.86695 7.77876 9.89773C7.86186 9.9285 7.93111 9.94389 7.98651 9.94389C8.0973 9.94389 8.23887 9.85618 8.41122 9.68075C8.58357 9.50533 8.74669 9.31451 8.90057 9.10831C9.05445 8.90211 9.22372 8.71129 9.40838 8.53587C9.59304 8.36044 9.74692 8.27273 9.87003 8.27273C9.9562 8.27273 10.0439 8.29427 10.1332 8.33736C10.2224 8.38044 10.3317 8.44661 10.4609 8.53587C10.5902 8.62512 10.6671 8.67898 10.6918 8.69744C10.8456 8.78977 11.0103 8.88518 11.1857 8.98366C11.3612 9.08215 11.5566 9.18987 11.772 9.30682C11.9875 9.42377 12.1536 9.5161 12.2706 9.58381C12.7015 9.79924 12.9354 9.96236 12.9723 10.0732C12.9908 10.1162 13 10.1809 13 10.267Z"/>
</svg>
