<svg width="15" height="16" viewBox="0 0 15 16" xmlns="http://www.w3.org/2000/svg">
<path d="M7.49975 0C3.35791 0 0 3.3799 0 7.55039C0 10.6424 1.84634 13.2978 4.48925 14.465C4.46815 13.9373 4.4855 13.3044 4.61959 12.7319C4.764 12.1178 5.58449 8.61661 5.58449 8.61661C5.58449 8.61661 5.34444 8.13471 5.34444 7.42295C5.34444 6.30481 5.98958 5.46892 6.79178 5.46892C7.47349 5.46892 7.80309 5.98386 7.80309 6.60169C7.80309 7.29174 7.36519 8.32445 7.14108 9.2807C6.95307 10.0812 7.54054 10.7344 8.32352 10.7344C9.74461 10.7344 10.7015 8.89791 10.7015 6.72063C10.7015 5.06632 9.59457 3.82829 7.58133 3.82829C5.30646 3.82829 3.88959 5.53547 3.88959 7.44325C3.88959 8.1012 4.08229 8.56516 4.38376 8.92435C4.52301 9.08954 4.54223 9.15515 4.49113 9.34489C4.45643 9.48459 4.37391 9.81829 4.33922 9.95045C4.28905 10.1425 4.13574 10.2105 3.96367 10.1392C2.91579 9.70973 2.42818 8.55431 2.42818 7.2554C2.42818 5.11116 4.22435 2.53882 7.78856 2.53882C10.6514 2.53882 12.5371 4.62501 12.5371 6.86412C12.5371 9.82584 10.9003 12.0385 8.48949 12.0385C7.67932 12.0385 6.91743 11.5977 6.65769 11.0983C6.65769 11.0983 6.22166 12.8381 6.13023 13.1732C5.97082 13.7542 5.6595 14.3371 5.37538 14.7907C6.04865 14.9913 6.76131 15.1003 7.49975 15.1003C11.6416 15.1003 14.999 11.7209 14.999 7.55039C14.999 3.3799 11.6416 0 7.49975 0Z"/>
</svg>
