<svg width="14" height="15" viewBox="0 0 14 15" xmlns="http://www.w3.org/2000/svg">
<path d="M13.276 6.43055V3.81223C12.0498 3.81223 11.114 3.48494 10.5101 2.8488C9.89036 2.12279 9.54314 1.20339 9.52827 0.248925V0.0599263L7.05286 0C7.05286 0 7.05286 0.106024 7.05286 0.248925V10.6346C6.96794 11.0986 6.74271 11.5254 6.40756 11.8573C6.07242 12.1892 5.6435 12.4103 5.17871 12.4908C4.71391 12.5712 4.23563 12.5071 3.80843 12.3071C3.38122 12.1071 3.02567 11.7809 2.78976 11.3724C2.55385 10.9639 2.44895 10.4929 2.48922 10.0229C2.52948 9.55295 2.71298 9.10664 3.01494 8.74425C3.31689 8.38187 3.72276 8.12085 4.17776 7.99644C4.63276 7.87203 5.11498 7.89022 5.55931 8.04856V5.51321C5.30024 5.47076 5.03818 5.44918 4.77566 5.44868C3.83113 5.44868 2.9078 5.72877 2.12245 6.25352C1.33709 6.77828 0.724986 7.52413 0.363528 8.39677C0.00206914 9.26941 -0.0925048 10.2296 0.0917651 11.156C0.276035 12.0824 0.730873 12.9334 1.39876 13.6012C2.06665 14.2691 2.91759 14.724 3.84398 14.9082C4.77036 15.0925 5.73059 14.9979 6.60323 14.6365C7.47587 14.275 8.22172 13.6629 8.74648 12.8776C9.27124 12.0922 9.55132 11.1689 9.55132 10.2243C9.55081 10.0286 9.53849 9.83313 9.51444 9.6389V5.42102C10.6401 6.12397 11.9497 6.47545 13.276 6.43055V6.43055Z"/>
</svg>
