<svg width="19" height="16" viewBox="0 0 19 16" xmlns="http://www.w3.org/2000/svg">
<path d="M18.4569 1.78706C17.7779 2.09081 17.0486 2.29583 16.2819 2.38701C17.0636 1.91542 17.6642 1.16853 17.9475 0.278775C17.2154 0.714941 16.4054 1.03321 15.5429 1.20338C14.8517 0.462882 13.8675 0 12.7777 0C10.6863 0 8.99192 1.70633 8.99192 3.81167C8.99192 4.11019 9.0248 4.40174 9.08942 4.68051C5.9423 4.52138 3.15231 3.0038 1.28423 0.697518C0.958845 1.26088 0.771922 1.91542 0.771922 2.6141C0.771922 3.93711 1.44058 5.10332 2.45596 5.78748C1.83577 5.76716 1.25192 5.59641 0.741346 5.31066C0.740769 5.32634 0.740769 5.34318 0.740769 5.35828C0.740769 7.20575 2.04577 8.74656 3.77827 9.09677C3.46096 9.18331 3.12634 9.23035 2.78077 9.23035C2.53615 9.23035 2.29961 9.20654 2.06884 9.1624C2.55 10.6759 3.94904 11.7782 5.60538 11.8096C4.31019 12.8318 2.6775 13.4422 0.903461 13.4422C0.597692 13.4422 0.295961 13.4242 0 13.3887C1.67538 14.469 3.66577 15.1003 5.80442 15.1003C12.769 15.1003 16.5784 9.29191 16.5784 4.25422C16.5784 4.08928 16.5738 3.92434 16.5669 3.76056C17.3071 3.22333 17.9486 2.55253 18.4569 1.78706Z"/>
</svg>
